<?xml version="1.0" encoding="UTF-8"?>
<svg xmlns="http://www.w3.org/2000/svg" width="193" height="72" viewBox="0 0 193 72" fill="none">
  <g id="Group">
    <g id="Group_2">
      <path id="Vector" d="M15.0147 0H21.3456L6.33088 60.0674H0L15.0147 0Z" fill="white"></path>
      <path id="Vector_2" d="M22.8069 1.62335H34.2507C40.5816 1.62335 42.2047 3.65278 42.2047 10.5523V28.0856C42.2047 34.9852 40.5816 37.0146 34.2507 37.0146H29.8676V58.444H22.8061V1.62335H22.8069ZM32.8707 30.3584C34.8999 30.3584 35.1432 29.5462 35.1432 27.1116V11.5264C35.1432 9.09087 34.8999 8.27962 32.8707 8.27962H29.8676V30.3584H32.8707Z" fill="white"></path>
      <path id="Vector_3" d="M44.1517 10.1463C44.1517 3.24678 45.8563 1.21735 52.1872 1.21735H55.8396C62.1705 1.21735 63.875 3.24678 63.875 10.1463V49.9211C63.875 56.8207 62.1705 58.8501 55.8396 58.8501H52.1872C45.8563 58.8501 44.1517 56.8207 44.1517 49.9211V10.1463ZM56.8135 11.1204C56.8135 8.68486 56.5702 7.8736 54.541 7.8736H53.5671C51.4565 7.8736 51.2946 8.68572 51.2946 11.1204V48.9463C51.2946 51.3817 51.4574 52.193 53.5671 52.193H54.541C56.5702 52.193 56.8135 51.3809 56.8135 48.9463V11.1204Z" fill="white"></path>
      <path id="Vector_4" d="M69.7981 58.444V8.19823H65.0905V1.62335H81.6479V8.19823H76.8588V58.444H69.7973H69.7981Z" fill="white"></path>
      <path id="Vector_5" d="M86.4361 58.444V8.19823H81.7284V1.62335H98.2858V8.19823H93.4968V58.444H86.4352H86.4361Z" fill="white"></path>
      <path id="Vector_6" d="M106.808 25.4882H113.301V32.1445H106.808V51.7886H114.762V58.4449H99.7463V1.62335H114.762V8.27962H106.808V25.4882Z" fill="white"></path>
      <path id="Vector_7" d="M124.421 29.0597C123.771 25.2449 123.284 21.348 122.879 17.6952C122.96 21.348 123.122 25.3255 123.122 29.0597V58.444H117.034V1.62335H125.881L129.939 26.3809C130.589 30.1151 130.995 33.9298 131.401 37.7454C131.319 33.7679 131.157 30.0337 131.157 26.3004V1.62335H137.245V58.444H129.372L124.421 29.0597H124.421Z" fill="white"></path>
      <path id="Vector_8" d="M147.47 48.9471C147.47 51.3826 147.633 52.1939 149.742 52.1939H150.716C152.745 52.1939 152.989 51.3817 152.989 48.9471V34.2545H159.644V49.9211C159.644 56.8207 157.94 58.8501 151.609 58.8501H148.362C142.032 58.8501 140.327 56.8207 140.327 49.9211V10.1463C140.327 3.24678 142.032 1.21735 148.362 1.21735H151.609C157.94 1.21735 159.644 3.24678 159.644 10.1463V23.3775H152.989V11.1204C152.989 8.68486 152.745 7.8736 150.716 7.8736H149.742C147.632 7.8736 147.47 8.68572 147.47 11.1204V48.9463V48.9471Z" fill="white"></path>
      <path id="Vector_9" d="M162.646 1.62335H169.708V58.444H162.646V1.62335Z" fill="white"></path>
      <path id="Vector_10" d="M184.803 50.3263H178.716L177.904 58.4432H171.573L177.254 1.6225H186.994L192.756 58.4432H185.614L184.802 50.3263H184.803ZM179.365 43.6709H184.154L183.829 39.9367C182.774 27.9229 182.125 18.4259 181.719 9.17226C181.313 18.4259 180.663 27.6796 179.69 39.6934L179.365 43.6709Z" fill="white"></path>
    </g>
    <g id="Clip path group">
      <mask id="mask0_116_133" style="mask-type:luminance" maskUnits="userSpaceOnUse" x="0" y="0" width="193" height="61">
        <g id="clippath">
          <path id="Vector_11" d="M15.0147 0H21.3456L6.33088 60.0674H0L15.0147 0ZM162.646 1.62338H169.708V58.444H162.646V1.62338ZM184.803 50.3263H178.716L177.904 58.4432H171.573L177.254 1.62252H186.993L192.756 58.4432H185.614L184.802 50.3263H184.803ZM179.365 43.6709H184.154L183.829 39.9367C182.774 27.9229 182.125 18.4259 181.719 9.17228C181.313 18.4259 180.663 27.6796 179.69 39.6934L179.365 43.6709Z" fill="white"></path>
        </g>
      </mask>
      <g mask="url(#mask0_116_133)">
        <g id="Group_3">
          <g id="Group_4">
            <path id="Vector_12" d="M192.757 120.812C228.271 120.812 257.06 92.02 257.06 56.5028C257.06 20.9856 228.271 -7.80676 192.757 -7.80676C157.244 -7.80676 128.455 20.9856 128.455 56.5028C128.455 92.02 157.244 120.812 192.757 120.812Z" fill="url(#paint0_radial_116_133)"></path>
            <path id="Vector_13" d="M14.3877 65.9329C49.901 65.9329 78.6902 37.1405 78.6902 1.62332C78.6902 -33.8939 49.901 -62.6863 14.3877 -62.6863C-21.1255 -62.6863 -49.9147 -33.8939 -49.9147 1.62332C-49.9147 37.1405 -21.1255 65.9329 14.3877 65.9329Z" fill="url(#paint1_radial_116_133)"></path>
          </g>
        </g>
      </g>
    </g>
    <g id="Group_5">
      <path id="Vector_14" d="M28.9211 65.1312H26.491V71.455H25.6841V65.1312H23.2343V64.4338H28.9202V65.1312H28.9211Z" fill="white"></path>
      <path id="Vector_15" d="M41.8355 64.4347H42.6518V68.7171C42.6518 70.1409 43.1495 70.8588 44.6134 70.8588C46.0772 70.8588 46.5852 70.1418 46.5852 68.7171V64.4347H47.4015V68.8465C47.4015 70.5992 46.5355 71.5553 44.6134 71.5553C42.6912 71.5553 41.8347 70.5992 41.8347 68.8465V64.4347H41.8355Z" fill="white"></path>
      <path id="Vector_16" d="M79.0482 64.3345C80.841 64.3345 82.0153 65.4104 82.2252 67.1435H81.4089C81.2496 65.7994 80.423 65.0318 79.049 65.0318C77.4156 65.0318 76.5796 66.2465 76.5796 67.9402C76.5796 69.6338 77.4164 70.858 79.049 70.858C80.423 70.858 81.2496 70.081 81.4089 68.7369H82.2252C82.0162 70.4793 80.841 71.5553 79.0482 71.5553C76.9864 71.5553 75.7624 69.9919 75.7624 67.9402C75.7624 65.8885 76.9873 64.3345 79.0482 64.3345Z" fill="white"></path>
      <path id="Vector_17" d="M99.1235 68.7069H96.3054L95.4292 71.4559H94.6129L96.8836 64.4347H98.5565L100.817 71.4559H100.01L99.1235 68.7069ZM98.9042 68.0095L97.8284 64.6634H97.5997L96.5341 68.0095H98.9042Z" fill="white"></path>
      <path id="Vector_18" d="M113.731 64.4347H116.061C117.734 64.4347 118.8 64.8228 118.8 66.3965C118.8 67.4519 118.252 67.9204 117.495 68.0498V68.2888H118.332C118.73 68.2888 118.89 68.4482 118.89 68.8165V71.4559H118.073V68.6375H114.548V71.4559H113.731V64.4347ZM116.062 67.9401C117.257 67.9401 117.984 67.8211 117.984 66.5361C117.984 65.2511 117.257 65.132 116.062 65.132H114.549V67.9401H116.062Z" fill="white"></path>
      <path id="Vector_19" d="M132.173 64.4347H134.503C136.176 64.4347 137.242 64.8228 137.242 66.3965C137.242 67.4519 136.694 67.9204 135.937 68.0498V68.2888H136.774C137.172 68.2888 137.332 68.4482 137.332 68.8165V71.4559H136.515V68.6375H132.99V71.4559H132.173V64.4347ZM134.504 67.9401C135.699 67.9401 136.426 67.8211 136.426 66.5361C136.426 65.2511 135.699 65.132 134.504 65.132H132.99V67.9401H134.504Z" fill="white"></path>
      <path id="Vector_20" d="M150.615 64.4347H154.967V65.132H151.432V67.5915H154.47V68.2888H151.432V70.7586H154.967V71.4559H150.615V64.4347Z" fill="white"></path>
      <path id="Vector_21" d="M168.072 64.4347H170.402C172.075 64.4347 173.14 64.8228 173.14 66.3965C173.14 67.4519 172.593 67.9204 171.836 68.0498V68.2888H172.673C173.071 68.2888 173.23 68.4482 173.23 68.8165V71.4559H172.414V68.6375H168.888V71.4559H168.072V64.4347ZM170.402 67.9401C171.597 67.9401 172.324 67.8211 172.324 66.5361C172.324 65.2511 171.597 65.132 170.402 65.132H168.888V67.9401H170.402Z" fill="white"></path>
      <path id="Vector_22" d="M190.726 68.7069H187.907L187.031 71.4559H186.215L188.486 64.4347H190.158L192.419 71.4559H191.612L190.726 68.7069ZM190.507 68.0095L189.431 64.6634H189.203L188.137 68.0095H190.507Z" fill="white"></path>
    </g>
    <path id="Vector_23" d="M98.2858 1.62335H65.0905V8.19823H98.2858V1.62335Z" fill="white"></path>
  </g>
  <defs>
    <radialGradient id="paint0_radial_116_133" cx="0" cy="0" r="1" gradientUnits="userSpaceOnUse" gradientTransform="translate(192.757 56.5028) scale(64.3024 64.3096)">
      <stop stop-color="#9600FB"></stop>
      <stop offset="0.79" stop-color="#E8008F" stop-opacity="0.0484"></stop>
      <stop offset="1" stop-color="#FF0072" stop-opacity="0"></stop>
    </radialGradient>
    <radialGradient id="paint1_radial_116_133" cx="0" cy="0" r="1" gradientUnits="userSpaceOnUse" gradientTransform="translate(14.3877 1.62332) scale(64.3024 64.3096)">
      <stop stop-color="#9600FB"></stop>
      <stop offset="0.79" stop-color="#E8008F" stop-opacity="0.0484"></stop>
      <stop offset="1" stop-color="#FF0072" stop-opacity="0"></stop>
    </radialGradient>
  </defs>
</svg>
